<svg width="1000" height="1000" xmlns="http://www.w3.org/2000/svg" xml:space="preserve"><defs><clipPath clipPathUnits="userSpaceOnUse" id="a"><path d="M-149.807 1166.255h1024v-1024h-1024v1024z"/></clipPath></defs><g clip-path="url(#a)" transform="matrix(1.33333 0 0 -1.33333 0 1365.33)"><path fill="#efb241" d="M439.013 723.928a123 123 0 0 1-8.808 25.028c-29.324 61.214-108.463 99.047-169.676 69.723-61.21-29.323-81.324-114.703-52-175.917a123.15 123.15 0 0 1 13.984-22.548c-31.134-56.497-35.503-126.655-5.509-189.265 39.14-81.705 119.198-113.92 204.415-104.093 23.972 2.143 32.4 28.674 55.647 39.81 23.25 11.137 46.211-.355 65.9 18.416 61.06 60.248 86.127 142.824 46.987 224.528-29.993 62.61-87.402 103.173-150.94 114.318"/><path fill="#f6cf68" d="M232.194 899.119s-33.18-53.345-117.144 8.239c91.757 49.23 117.144-8.239 117.144-8.239M247.898 848.515s-26.199 72.85 97.118 105.453c-22.358-125.576-97.118-105.453-97.118-105.453"/><path fill="#efb241" d="M254.316 758.612s-29.086-50.762 3.517-99.598"/><path fill="#3caae1" d="M256.839 584.879s-20.071-20.638-13.122-57.853"/><path fill="#f6cf68" d="m247.898 848.515 63.922 74.061M232.194 899.119l-58.57 4.12"/><path fill="#efb241" d="M464.304 668.939c31.2-10.218 59.266-30.731 78.611-60.364 45.164-69.187 25.693-161.887-43.496-207.054"/><path fill="#2f3a78" d="M306.087 823.884c-14.728 0-29.444-3.012-43.405-9.699-27.644-13.243-47.993-39.108-57.3-72.832-8.957-32.453-6.171-67.605 7.642-96.438 3.649-7.62 8.165-14.9 13.419-21.637a4.984 4.984 0 0 0 .434-5.47c-31.441-57.055-33.453-126.104-5.38-184.707 31.492-65.737 94.136-102.964 170.756-102.967 9.337-.001 18.872.55 28.595 1.672 11.864 1.062 19.489 9.115 28.317 18.438 6.97 7.361 14.872 15.706 25.748 20.916 10.772 5.16 21.132 5.831 31.15 6.48 12.595.816 23.472 1.521 33.463 11.047 64.069 63.217 81.263 145.021 45.935 218.769-28.075 58.602-83.142 100.309-147.31 111.564a4.98 4.98 0 0 0-3.988 3.768 118.372 118.372 0 0 1-8.451 24.015c-20.62 43.044-70.14 77.081-119.625 77.081m85.958-503.736c-80.416-.004-146.306 39.282-179.535 108.647-28.994 60.523-27.412 131.659 4.093 190.964a128.003 128.003 0 0 0-12.567 20.851c-14.837 30.97-17.848 68.656-8.261 103.394 10.085 36.546 32.317 64.661 62.6 79.169 30.286 14.508 66.129 14.211 100.928-.83 33.078-14.299 60.56-40.264 75.397-71.234a128.406 128.406 0 0 0 8.374-22.86c65.956-12.617 122.382-55.964 151.374-116.487C631.7 534 613.76 447.934 546.465 381.535c-12.673-12.085-26.442-12.978-39.757-13.84-9.492-.614-18.456-1.195-27.49-5.522-9.212-4.414-16.128-11.718-22.816-18.782-9.364-9.887-19.048-20.114-34.54-21.499-10.126-1.167-20.084-1.743-29.817-1.744"/><path fill="#2f3a78" d="M260.01 813.444a4.975 4.975 0 0 0-4.101 2.147c-.626.903-61.645 91.248 14.07 171.428a4.983 4.983 0 0 0 7.246-6.842c-70.233-74.375-13.701-158.078-13.122-158.915a4.983 4.983 0 0 0-4.092-7.818"/><path fill="#c2d785" d="M232.194 899.119s-33.18-53.345-117.144 8.239c91.757 49.23 117.144-8.239 117.144-8.239"/><path fill="#2f3a78" d="M124.615 906.685c28.125-19.224 52.905-26.975 73.743-23.06 15.608 2.938 24.497 11.73 27.946 15.91-2.83 4.621-10.4 14.571-25.445 19.663-20.079 6.803-45.708 2.585-76.244-12.513m62.94-34.012c-22.34 0-47.652 10.276-75.452 30.666a4.982 4.982 0 0 0 .591 8.409c36.406 19.535 67.238 25.188 91.646 16.793 23.67-8.14 32.066-26.625 32.413-27.408a4.988 4.988 0 0 0-.327-4.645c-.453-.728-11.354-17.854-35.93-22.6a68.106 68.106 0 0 0-12.94-1.215"/><path fill="#c2d785" d="M247.898 848.515s-26.199 72.85 97.118 105.453c-22.358-125.576-97.118-105.453-97.118-105.453"/><path fill="#2f3a78" d="M251.861 852.84c6.315-.9 22.85-1.809 40.042 9.201 22.37 14.325 38.065 42.89 46.71 84.972-41.367-12.111-68.586-30.175-80.968-53.754-9.49-18.074-7.215-34.257-5.784-40.419m7.473-10.507c-7.452 0-12.29 1.252-12.73 1.371a4.978 4.978 0 0 0-3.394 3.125c-.353.978-8.457 24.271 5.613 51.064 14.484 27.583 46.42 48.07 94.92 60.892a4.99 4.99 0 0 0 4.65-1.152 4.985 4.985 0 0 0 1.53-4.539c-8.794-49.386-26.587-82.897-52.885-99.598-14.344-9.11-28.164-11.163-37.704-11.163M257.838 654.032a4.978 4.978 0 0 0-4.15 2.216c-33.925 50.817-4.946 102.66-3.695 104.84a4.98 4.98 0 0 0 6.8 1.848 4.982 4.982 0 0 0 1.849-6.796c-1.13-1.985-27.098-48.773 3.336-94.36a4.983 4.983 0 0 0-4.14-7.748M243.71 522.042a4.984 4.984 0 0 0-4.892 4.069c-7.339 39.3 13.556 61.325 14.45 62.243a4.98 4.98 0 0 0 7.045.097 4.981 4.981 0 0 0 .111-7.031c-.764-.801-18.157-19.49-11.81-53.48a4.981 4.981 0 0 0-4.904-5.898"/><path fill="#2f3a78" d="M247.896 843.532a4.983 4.983 0 0 0-3.77 8.238l63.921 74.062a4.98 4.98 0 0 0 7.028.517 4.983 4.983 0 0 0 .517-7.028l-63.92-74.06a4.968 4.968 0 0 0-3.776-1.729M232.2 894.136c-.117 0-.236.004-.354.012l-58.571 4.12a4.984 4.984 0 0 0-4.622 5.32c.193 2.744 2.584 4.833 5.32 4.621l58.57-4.119a4.984 4.984 0 0 0-.343-9.954M499.424 396.538a4.984 4.984 0 0 0-2.729 9.156c66.776 43.59 85.638 133.382 42.047 200.157-18.179 27.848-44.457 48.025-75.989 58.35a4.983 4.983 0 1 0 3.102 9.473c33.228-10.882 62.077-33.033 81.233-62.375 46.594-71.378 26.432-167.355-44.945-213.95a4.955 4.955 0 0 0-2.719-.811"/><path fill="#2f3a78" d="M455.01 435.321a224.742 224.742 0 0 1 15.282 13.189c9.356 8.86 15.555 19.945 19.91 28.611 12.32 24.515 13.05 49.546 2.234 76.522-10.98 27.379-37.12 42.952-66.61 39.68-6.857-.762-13.822-2.444-20.558-4.071-4.229-1.022-8.602-2.078-12.968-2.916l-1.557-.299c-9.115-1.754-18.539-3.568-27.972-4.359-11.855-1.003-22.422 2.847-30.548 11.114-7.8 7.938-11.124 18.658-9.117 29.411 2.046 10.956 9.191 19.941 19.603 24.654 7.025 3.18 14.514 4.444 22.907 3.877.951-.064 3.318-.392 4.761-2.042 7.393-8.455 17.32-14.019 31.245-17.515.963-.242 1.875-.514 3.03-.859.583-.174 1.23-.367 1.972-.583l6.453-1.872-42.508-26.498c2.996-1.69 6.365-2.417 10.191-2.242 2.73.132 5.412.874 7.177 1.985 13.611 8.573 27.341 17.48 40.62 26.092l9.281 6.017c.575.373 1.154.838 1.767 1.332.57.457 1.157.93 1.807 1.382 4.121 2.87 5.32 8.04 3.388 13.913-2.106-1.174-4.283-2.388-6.5-3.502-13.054-6.568-24.18-8.087-35.012-4.785-9.688 2.954-18.202 8.967-25.304 17.871-1.237 1.551-2.348 2.292-3.964 2.642-16.357 3.543-31.185.545-44.08-8.906-20.033-14.685-25.464-41.14-12.633-61.537 8.371-13.307 20.351-20.394 36.625-21.666 16.034-1.254 32.807 1.041 52.79 7.219 9.352 2.892 20.534 5.655 32.531 4.234 18.844-2.235 32.598-12.167 40.881-29.522 7.004-14.674 9.217-30.624 6.577-47.407-2.15-13.669-8.26-26.676-18.164-38.658-12.854-15.554-26.704-26.87-42.342-34.597-25.44-12.57-50.542-15.128-74.609-7.605-29.068 9.085-48.456 36.598-48.245 68.464.016 2.325.034 4.96 2.156 6.298 2.112 1.334 4.485.223 6.578-.757 10.766-5.043 20.887-4.553 30.082 1.46 5.253 3.435 10.25 7.621 15.081 11.669 2.261 1.894 4.598 3.852 6.952 5.728 1.98 1.577 3.973 3.256 5.9 4.879 4.588 3.864 9.332 7.859 14.565 11.083 9.767 6.018 21.293 7.63 33.332 4.663 12.378-3.051 19.825-13.24 18.97-25.959-1.25-18.598-16.046-37.693-33.684-43.474-6.075-1.992-11.658-1.777-16.586.641-5.098 2.499-8.692 6.609-10.118 11.573-1.445 5.032-.546 10.535 2.534 15.497 2.393 3.858 5.088 7.549 7.695 11.119l1.075 1.474c-4.516-1.402-8.259-3.553-11.492-6.565-9.858-9.186-12.494-22.219-6.88-34.014 4.008-8.425 11.096-13.168 21.066-14.099 9.001-.841 17.852 1.826 27.047 8.155 18.48 12.717 28.798 29.09 30.673 48.663 1.917 20.011-12.125 37.002-32.662 39.521-17.22 2.113-32.913-2.349-46.652-13.263-3.6-2.861-7.215-5.851-10.71-8.743-4.223-3.493-8.59-7.106-13-10.547-2.828-2.207-6.185-4.191-10.566-6.242-10.329-4.837-20.19-2.815-30.145 6.179-2.356 2.129-4.568 4.42-6.707 6.635-.61.631-1.22 1.262-1.833 1.89-.302-1.622-.609-3.234-.91-4.82-1.296-6.803-2.636-13.838-3.43-20.761-1.795-15.61.34-29.823 6.342-42.243 15.714-32.515 41.658-49.586 77.11-50.736 15.078-.491 30.783 2.348 46.665 8.429 10.596 4.057 21.148 10.38 33.211 19.899"/><path fill="#2f3a78" d="M367.362 619.169a9.594 9.594 0 0 0-9.594-9.594c-5.298 0-9.593 4.295-9.593 9.594 0 5.298 4.295 9.594 9.593 9.594 5.299 0 9.594-4.296 9.594-9.594"/></g></svg>